<?xml version="1.0" encoding="utf-8"?>
<!-- Generator: Adobe Illustrator 18.0.0, SVG Export Plug-In . SVG Version: 6.00 Build 0)  -->
<!DOCTYPE svg PUBLIC "-//W3C//DTD SVG 1.1//EN" "http://www.w3.org/Graphics/SVG/1.1/DTD/svg11.dtd">
<svg version="1.1" id="Capa_1" xmlns="http://www.w3.org/2000/svg" xmlns:xlink="http://www.w3.org/1999/xlink" x="0px" y="0px"
	 viewBox="0 0 36.2 25.8" enable-background="new 0 0 36.2 25.8" xml:space="preserve">
<g>
	<rect x="1.3" y="6.1" fill="#FFFFFF" width="33.9" height="14.2"/>
	<rect x="1.3" y="20.3" fill="#FFFFFF" width="19.4" height="4.7"/>
	
		<line fill="none" stroke="#9A3237" stroke-width="0.5" stroke-linecap="square" stroke-miterlimit="10" x1="1.3" y1="10.8" x2="35.2" y2="10.8"/>
	
		<line fill="none" stroke="#9A3237" stroke-width="0.5" stroke-linecap="square" stroke-miterlimit="10" x1="1.3" y1="15.5" x2="35.2" y2="15.5"/>
	
		<line fill="none" stroke="#9A3237" stroke-width="0.5" stroke-linecap="square" stroke-miterlimit="10" x1="1.3" y1="20.3" x2="35.2" y2="20.3"/>
	
		<line fill="none" stroke="#9A3237" stroke-width="0.5" stroke-linecap="square" stroke-miterlimit="10" x1="25.5" y1="6.1" x2="25.5" y2="20.2"/>
	
		<line fill="none" stroke="#9A3237" stroke-width="0.5" stroke-linecap="square" stroke-miterlimit="10" x1="30.3" y1="6.1" x2="30.3" y2="20.2"/>
	
		<line fill="none" stroke="#9A3237" stroke-width="0.5" stroke-linecap="square" stroke-miterlimit="10" x1="20.7" y1="6.1" x2="20.7" y2="25"/>
	
		<line fill="none" stroke="#9A3237" stroke-width="0.5" stroke-linecap="square" stroke-miterlimit="10" x1="15.8" y1="6.1" x2="15.8" y2="25"/>
	
		<line fill="none" stroke="#9A3237" stroke-width="0.5" stroke-linecap="square" stroke-miterlimit="10" x1="11" y1="6.1" x2="11" y2="25"/>
	
		<line fill="none" stroke="#9A3237" stroke-width="0.5" stroke-linecap="square" stroke-miterlimit="10" x1="6.1" y1="6.1" x2="6.1" y2="25"/>
	
		<line fill="#9A3237" stroke="#FFFFFF" stroke-width="0.5" stroke-linecap="square" stroke-miterlimit="10" x1="1.3" y1="6" x2="35.2" y2="6"/>
	
		<rect x="1.3" y="1.6" fill="#9A3237" stroke="#9A3237" stroke-width="0.5" stroke-linecap="square" stroke-miterlimit="10" width="33.9" height="4.5"/>
	
		<line fill="none" stroke="#9A3237" stroke-width="0.5" stroke-linecap="square" stroke-miterlimit="10" x1="1.3" y1="25.1" x2="20.7" y2="25.1"/>
	
		<line fill="none" stroke="#9A3237" stroke-width="0.5" stroke-linecap="square" stroke-miterlimit="10" x1="1.3" y1="6.3" x2="1.3" y2="25"/>
	
		<line fill="none" stroke="#9A3237" stroke-width="0.5" stroke-linecap="square" stroke-miterlimit="10" x1="35.2" y1="6.3" x2="35.2" y2="20.3"/>
</g>
</svg>
