<?xml version="1.0" encoding="utf-8"?>
<!-- Generator: Adobe Illustrator 18.0.0, SVG Export Plug-In . SVG Version: 6.00 Build 0)  -->
<!DOCTYPE svg PUBLIC "-//W3C//DTD SVG 1.1//EN" "http://www.w3.org/Graphics/SVG/1.1/DTD/svg11.dtd">
<svg version="1.1" id="Capa_1" xmlns="http://www.w3.org/2000/svg" xmlns:xlink="http://www.w3.org/1999/xlink" x="0px" y="0px"
	 viewBox="0 0 36.2 25.8" enable-background="new 0 0 36.2 25.8" xml:space="preserve">
<g>
	<path fill="#FFFFFF" stroke="#9A3237" stroke-width="0.5" stroke-miterlimit="10" d="M18.1,1.3L18.1,1.3c-6.4,0-11.6,5.2-11.6,11.6
		v0c0,6.4,5.2,11.6,11.6,11.6h0c6.4,0,11.6-5.2,11.6-11.6v0C29.7,6.6,24.4,1.3,18.1,1.3z"/>
	<line fill="none" stroke="#9A3237" stroke-width="0.5" stroke-miterlimit="10" x1="18.1" y1="12.4" x2="18.1" y2="4.5"/>
	<line fill="none" stroke="#9A3237" stroke-width="0.5" stroke-miterlimit="10" x1="18.1" y1="12.9" x2="14.4" y2="18.2"/>
</g>
<g>
	<path fill="#FFFFFF" stroke="#9A3237" stroke-width="0.5" stroke-miterlimit="10" d="M76.1,37.5L76.1,37.5c0.5-1.1,0.8-2.4,0.8-3.7
		c0-5.1-4.1-9.2-9.2-9.2c-5.1,0-9.2,4.1-9.2,9.2c0,1.3,0.3,2.5,0.8,3.7h0l0,0.1c0.1,0.3,0.3,0.6,0.4,0.8l7.9,15.5l8-15.5
		c0.1-0.2,0.3-0.5,0.4-0.7L76.1,37.5z"/>
	<circle fill="#FFFFFF" stroke="#9A3237" stroke-width="0.5" stroke-miterlimit="10" cx="67.7" cy="33.8" r="4.5"/>
</g>
</svg>
