<?xml version="1.0" encoding="utf-8"?>
<!-- Generator: Adobe Illustrator 18.0.0, SVG Export Plug-In . SVG Version: 6.00 Build 0)  -->
<!DOCTYPE svg PUBLIC "-//W3C//DTD SVG 1.1//EN" "http://www.w3.org/Graphics/SVG/1.1/DTD/svg11.dtd">
<svg version="1.1" id="Capa_1" xmlns="http://www.w3.org/2000/svg" xmlns:xlink="http://www.w3.org/1999/xlink" x="0px" y="0px"
	 viewBox="0 106.3 764 229" enable-background="new 0 106.3 764 229" xml:space="preserve">
<g>
	<path fill="#8F3036" d="M741.5,272.4c-3.3,0-6,1.3-8.3,3.8c-2.2,2.5-3.5,5.6-3.9,9.4l23.6,0.2v-1.1c0-3.5-1-6.4-3.1-8.7
		C747.8,273.6,745,272.4,741.5,272.4 M742,310.3c-5,0-9.2-1.9-12.5-5.6c-3.3-3.7-5-8.4-5-14.1v-2c0-5.7,1.6-10.5,4.9-14.3
		c3.3-3.8,7.3-5.7,12-5.7c4.9,0,8.8,1.6,11.6,4.7c2.8,3.1,4.2,7.3,4.2,12.5v3.8H729v1.1c0,4.5,1.2,8.3,3.6,11.3
		c2.4,3,5.5,4.6,9.4,4.6c2.8,0,5.1-0.4,7.1-1.1c2-0.8,3.6-1.9,5-3.3l1.9,3c-1.5,1.6-3.4,2.8-5.7,3.8
		C748,309.8,745.2,310.3,742,310.3 M708.7,259.1v10.3h8.8v3.6h-8.8v26.1c0,2.6,0.5,4.5,1.4,5.6c1,1.1,2.2,1.6,3.8,1.6
		c0.7,0,1.4,0,2.1-0.1l2.4-0.3l0.7,3.3c-0.7,0.3-1.6,0.6-2.7,0.7c-1.1,0.2-2.1,0.3-3.2,0.3c-2.8,0-5-0.9-6.6-2.7
		c-1.6-1.8-2.3-4.6-2.3-8.4V273h-6.9v-3.6h6.9v-10.3H708.7z M685.8,302.9c-1.3,2.3-3,4.2-5.2,5.4c-2.2,1.3-4.7,1.9-7.7,1.9
		c-4.2,0-7.5-1.4-9.9-4.3c-2.4-2.9-3.6-7.3-3.6-13.3v-23.2h4.5v23.3c0,4.9,0.8,8.4,2.5,10.5c1.7,2.1,4.1,3.2,7.1,3.2
		c3.4,0,6-0.8,8-2.3c2-1.5,3.4-3.6,4.2-6.2v-28.5h4.5v40.1h-3.9L685.8,302.9z M641.3,259.1v10.3h8.8v3.6h-8.8v26.1
		c0,2.6,0.5,4.5,1.4,5.6c1,1.1,2.2,1.6,3.8,1.6c0.7,0,1.4,0,2.1-0.1l2.4-0.3l0.7,3.3c-0.7,0.3-1.6,0.6-2.7,0.7
		c-1.1,0.2-2.1,0.3-3.2,0.3c-2.8,0-5-0.9-6.6-2.7c-1.6-1.8-2.3-4.6-2.3-8.4V273h-6.9v-3.6h6.9v-10.3H641.3z M622,257.9h-4.4v-6.2
		h4.4V257.9z M622,309.5h-4.4v-40.1h4.4V309.5z M598.8,259.1v10.3h8.8v3.6h-8.8v26.1c0,2.6,0.5,4.5,1.4,5.6c1,1.1,2.2,1.6,3.8,1.6
		c0.7,0,1.4,0,2.1-0.1l2.4-0.3l0.7,3.3c-0.7,0.3-1.6,0.6-2.7,0.7c-1.1,0.2-2.1,0.3-3.2,0.3c-2.8,0-5-0.9-6.6-2.7
		c-1.6-1.8-2.3-4.6-2.3-8.4V273h-6.9v-3.6h6.9v-10.3H598.8z M577.2,299.3c0-1.9-0.8-3.5-2.3-4.9c-1.5-1.4-4.3-2.6-8.3-3.4
		c-4.8-1-8.3-2.4-10.6-4.1c-2.3-1.7-3.4-4.1-3.4-7.2c0-3.1,1.3-5.6,3.9-7.7c2.6-2.1,6-3.2,10.3-3.2c4.5,0,8.1,1.1,10.8,3.4
		c2.6,2.2,3.9,5,3.8,8.4l-4.2,0.2c0-2.2-0.9-4.1-2.8-5.7c-1.9-1.6-4.4-2.4-7.5-2.4c-3.2,0-5.7,0.7-7.3,2.1c-1.6,1.4-2.4,3-2.4,4.9
		c0,1.9,0.7,3.4,2.1,4.6c1.4,1.2,4.2,2.3,8.4,3.2c4.8,1.1,8.3,2.5,10.7,4.4c2.4,1.8,3.6,4.3,3.6,7.5c0,3.3-1.4,6-4.1,8.1
		c-2.7,2.1-6.3,3.1-10.7,3.1c-4.9,0-8.7-1.2-11.5-3.5c-2.8-2.3-4.1-5.1-3.9-8.3l4.2-0.2c0.2,2.9,1.3,5,3.5,6.3c2.2,1.3,4.8,2,7.7,2
		c3.2,0,5.7-0.7,7.6-2.1C576.3,303,577.2,301.3,577.2,299.3 M514.9,269.4l0.4,7c1.3-2.5,3-4.4,5.2-5.7c2.2-1.4,4.8-2,7.8-2
		c4.3,0,7.7,1.3,9.9,4c2.3,2.6,3.4,6.8,3.4,12.4v24.4h-4.4v-24.4c0-4.6-0.9-7.8-2.6-9.7c-1.7-1.9-4.1-2.9-7.3-2.9
		c-3.1,0-5.7,0.8-7.6,2.5c-1.9,1.6-3.4,3.8-4.2,6.5v28h-4.5v-40.1H514.9z M497,309.5h-4.4v-54h4.4V309.5z M433.6,269.4l0.4,7
		c1.3-2.5,3-4.4,5.2-5.7c2.2-1.4,4.8-2,7.8-2c4.3,0,7.7,1.3,9.9,4c2.3,2.6,3.4,6.8,3.4,12.4v24.4h-4.4v-24.4c0-4.6-0.9-7.8-2.6-9.7
		c-1.7-1.9-4.1-2.9-7.3-2.9c-3.1,0-5.7,0.8-7.6,2.5c-1.9,1.6-3.4,3.8-4.2,6.5v28h-4.5v-40.1H433.6z M405.1,272.4
		c-3.3,0-6,1.3-8.3,3.8c-2.2,2.5-3.5,5.6-3.9,9.4l23.6,0.2v-1.1c0-3.5-1-6.4-3.1-8.7C411.4,273.6,408.6,272.4,405.1,272.4
		 M405.6,310.3c-5,0-9.2-1.9-12.5-5.6c-3.3-3.7-5-8.4-5-14.1v-2c0-5.7,1.6-10.5,4.9-14.3c3.3-3.8,7.3-5.7,12-5.7
		c4.9,0,8.8,1.6,11.6,4.7c2.8,3.1,4.2,7.3,4.2,12.5v3.8h-28.3v1.1c0,4.5,1.2,8.3,3.6,11.3c2.4,3,5.5,4.6,9.5,4.6
		c2.8,0,5.1-0.4,7.1-1.1c2-0.8,3.6-1.9,5-3.3l1.9,3c-1.5,1.6-3.4,2.8-5.7,3.8C411.6,309.8,408.8,310.3,405.6,310.3 M376.1,289.8
		c0-5.1-1-9.2-3-12.5c-2-3.2-5-4.8-8.9-4.8c-3,0-5.4,0.7-7.3,2.2c-1.9,1.4-3.3,3.3-4.2,5.5v19.3c1,2.2,2.5,3.9,4.4,5.2
		c1.9,1.3,4.3,1.9,7.2,1.9c3.9,0,6.8-1.5,8.8-4.4c2-2.9,3-6.8,3-11.6V289.8z M380.6,290.5c0,6-1.4,10.8-4.1,14.4
		c-2.7,3.6-6.5,5.3-11.2,5.3c-2.8,0-5.3-0.5-7.4-1.6c-2.1-1.1-3.8-2.6-5.2-4.6v20.8h-4.5v-55.5h3.7l0.6,6.2c1.3-2.2,3.1-3.9,5.2-5.2
		c2.1-1.2,4.6-1.8,7.5-1.8c4.8,0,8.6,1.9,11.3,5.8c2.7,3.8,4.1,8.9,4.1,15.3V290.5z M333.4,278c0-5.8-1.5-10.5-4.4-14.1
		c-2.9-3.6-7-5.3-12.3-5.3c-5.1,0-9.1,1.8-12,5.3c-2.9,3.6-4.3,8.3-4.3,14.1v8.9c0,5.9,1.4,10.6,4.3,14.2c2.9,3.6,6.9,5.3,12,5.3
		c5.3,0,9.4-1.8,12.3-5.3c2.9-3.6,4.4-8.3,4.4-14.2V278z M337.9,286.9c0,7-1.9,12.6-5.7,16.9c-3.8,4.3-8.9,6.5-15.3,6.5
		c-6.3,0-11.4-2.2-15.2-6.5c-3.8-4.3-5.6-9.9-5.6-16.9v-8.8c0-6.9,1.9-12.6,5.6-16.9c3.8-4.3,8.8-6.5,15.1-6.5
		c6.4,0,11.6,2.2,15.4,6.5c3.8,4.3,5.7,10,5.7,16.9V286.9z M415.5,228c2.3,0,4.3-0.6,6.1-1.7c1.8-1.1,3-2.4,3.6-3.9v-5.9h-7.2
		c-2.6,0-4.7,0.7-6.2,2c-1.5,1.3-2.2,2.8-2.2,4.6c0,1.5,0.5,2.8,1.5,3.7C412.2,227.6,413.7,228,415.5,228 M426.6,234.5
		c-0.3-1-0.6-2-0.8-3c-0.2-1-0.3-1.9-0.4-2.9c-1.2,1.9-2.9,3.5-4.9,4.7c-2,1.3-4.3,1.9-6.7,1.9c-4.2,0-7.4-1.1-9.6-3.2
		c-2.2-2.2-3.3-5.1-3.3-8.9c0-3.9,1.5-6.9,4.6-9c3.1-2.2,7.4-3.3,12.9-3.3h7v-3.5c0-2.1-0.6-3.7-1.9-4.9c-1.2-1.2-3-1.8-5.3-1.8
		c-2,0-3.7,0.5-4.9,1.5c-1.2,1-1.8,2.3-1.8,3.8h-8.7c-0.2-3.4,1.2-6.2,4.2-8.6c3-2.4,6.9-3.7,11.7-3.7c4.7,0,8.4,1.2,11.3,3.6
		c2.9,2.4,4.3,5.8,4.3,10.2v17.8c0,1.7,0.1,3.2,0.3,4.8c0.2,1.5,0.6,3,1.1,4.5H426.6z M392.4,234.5h-9v-57.8h9V234.5z M358.7,200.8
		c-2.2,0-4.1,0.9-5.5,2.7c-1.4,1.8-2.3,4-2.7,6.7l16,0.2v-0.9c0-2.5-0.7-4.6-2-6.2C363.3,201.7,361.4,200.9,358.7,200.8
		 M359.8,235.2c-5.7,0-10.2-1.9-13.6-5.6c-3.4-3.7-5-8.5-5-14.3v-1.5c0-5.8,1.7-10.7,5-14.5c3.4-3.9,7.6-5.8,12.6-5.7
		c5.4,0,9.5,1.6,12.4,4.9c2.9,3.3,4.3,7.7,4.3,13.2v5.3h-25c0.1,3.4,1,6,2.7,8c1.7,2,4.1,3,7.2,3c2.4,0,4.5-0.3,6.2-0.9
		c1.7-0.6,3.4-1.4,5-2.6l2.9,5.9c-1.5,1.3-3.5,2.5-6,3.4C366,234.8,363.1,235.2,359.8,235.2 M334.8,216.6c0.2,5.7-1.6,10.1-5.3,13.6
		c-3.6,3.4-8.6,5.1-14.8,5.1c-6.3,0-11.4-2.1-15.4-6.3c-3.9-4.2-5.9-9.7-5.9-16.3v-10.3c0-6.6,1.9-12,5.8-16.2
		c3.9-4.3,9-6.4,15.2-6.4c6.4,0,11.4,1.7,15.1,5c3.7,3.3,5.5,7.8,5.4,13.5l-8.8,0.2c0-3.6-1-6.5-3-8.5c-2-2-4.8-3-8.7-3
		c-3.7,0-6.6,1.5-8.8,4.4c-2.2,2.9-3.2,6.6-3.2,11v10.3c0,4.5,1.1,8.1,3.3,11c2.2,2.9,5.2,4.4,9,4.4c3.7,0,6.6-1,8.5-3
		c1.9-2,2.9-4.8,2.9-8.5H334.8z"/>
	<rect x="0.3" y="106.3" fill="#933235" width="245.4" height="229"/>
	<g>
		<defs>
			<rect id="SVGID_1_" x="0.3" y="106.3" width="245.4" height="229"/>
		</defs>
		<clipPath id="SVGID_2_">
			<use xlink:href="#SVGID_1_"  overflow="visible"/>
		</clipPath>
		<path clip-path="url(#SVGID_2_)" fill="#FFFFFF" d="M180,179.4c18.7,0,33.9,15.2,33.9,33.9c0,18.7-15.2,33.9-33.9,33.9
			c-18.7,0-33.9-15.2-33.9-33.9C146.1,194.5,161.3,179.4,180,179.4"/>
		<path clip-path="url(#SVGID_2_)" fill="#FFFFFF" d="M102.9,305.9c16.6-73.6,66.5-44.6,84.6-39.2c44.3,13.3,49,21.3,61-12.3
			c1.8-5.1,9.3-3.3,8.1,1.7c-10.6,42.7-26,62.7-70,51.2c-22-5.8-66.9-34.9-74.4-0.9C110.8,312.8,101.5,311.7,102.9,305.9"/>
	</g>
</g>
</svg>
