<?xml version="1.0" encoding="utf-8"?>
<!-- Generator: Adobe Illustrator 18.0.0, SVG Export Plug-In . SVG Version: 6.00 Build 0)  -->
<!DOCTYPE svg PUBLIC "-//W3C//DTD SVG 1.1//EN" "http://www.w3.org/Graphics/SVG/1.1/DTD/svg11.dtd">
<svg version="1.1" id="Capa_1" xmlns="http://www.w3.org/2000/svg" xmlns:xlink="http://www.w3.org/1999/xlink" x="0px" y="0px"
	 viewBox="0 0 352.9 134.9" enable-background="new 0 0 352.9 134.9" xml:space="preserve">
<path fill="#933235" d="M174,75.5V43.7h10.6c3.5,0,6.3,0.7,8.3,2.2c2,1.4,3,3.6,3,6.5c0,1.4-0.4,2.7-1.2,3.9c-0.8,1.1-2,2-3.4,2.5
	c1.9,0.4,3.3,1.3,4.4,2.7c1,1.4,1.5,3,1.5,4.9c0,3-1,5.3-2.9,6.8c-2,1.5-4.6,2.3-8.1,2.3H174z M179.3,61v10.2h6.7
	c1.8,0,3.2-0.4,4.2-1.2c1-0.8,1.5-2.1,1.5-3.6c0-1.7-0.4-3-1.2-3.9c-0.8-0.9-2.1-1.4-3.9-1.4H179.3z M179.3,57.1h5.9
	c1.6,0,2.9-0.4,3.9-1.2c1-0.8,1.4-1.9,1.4-3.3c0-1.6-0.5-2.7-1.5-3.5c-1-0.8-2.5-1.2-4.4-1.2h-5.3V57.1z"/>
<path fill="#933235" d="M216.7,72c-0.7,1.3-1.7,2.2-2.8,2.9c-1.1,0.7-2.4,1-3.9,1c-2.5,0-4.5-0.8-5.9-2.4c-1.4-1.6-2.1-4.1-2.1-7.5
	V51.9h5.3V66c0,2.1,0.3,3.5,1,4.3c0.7,0.8,1.7,1.2,3,1.2c1.3,0,2.3-0.2,3.2-0.7c0.9-0.5,1.6-1.1,2.1-2V51.9h5.3v23.6h-4.6L216.7,72z
	"/>
<path fill="#933235" d="M240.6,69.1c0-0.8-0.3-1.5-1-2c-0.7-0.5-2-1-3.9-1.4c-2.8-0.6-5-1.4-6.4-2.5c-1.4-1.1-2.2-2.6-2.2-4.5
	c0-2,0.8-3.7,2.5-5.1c1.7-1.4,3.9-2.1,6.6-2.1c2.9,0,5.2,0.7,6.9,2.1c1.7,1.4,2.5,3.2,2.4,5.3l0,0.1h-5.1c0-1-0.4-1.8-1.1-2.5
	c-0.7-0.7-1.8-1-3.1-1c-1.3,0-2.3,0.3-2.9,0.9c-0.7,0.6-1,1.3-1,2.1c0,0.8,0.3,1.5,0.9,2c0.6,0.5,1.9,0.9,3.9,1.3
	c3,0.6,5.2,1.5,6.6,2.6c1.4,1.1,2.2,2.6,2.2,4.5c0,2.1-0.9,3.9-2.6,5.2c-1.7,1.3-4.1,2-6.9,2c-3.1,0-5.5-0.8-7.3-2.4
	c-1.8-1.6-2.6-3.4-2.5-5.4l0-0.1h4.9c0.1,1.4,0.6,2.4,1.5,3c0.9,0.6,2.1,0.9,3.4,0.9c1.4,0,2.4-0.3,3.2-0.8
	C240.2,70.6,240.6,69.9,240.6,69.1"/>
<path fill="#933235" d="M256.2,75.5h-5.3V51.9h5.3V75.5z M256.2,46.1h-5.3v-4.6h5.3V46.1z"/>
<path fill="#933235" d="M266.9,51.9l0.3,3.4c0.8-1.2,1.7-2.1,2.9-2.8c1.2-0.7,2.5-1,4-1c2.5,0,4.4,0.7,5.7,2.2
	c1.4,1.5,2.1,3.8,2.1,7v14.8h-5.3V60.7c0-1.8-0.4-3-1.1-3.8c-0.7-0.8-1.8-1.1-3.3-1.1c-1,0-2,0.2-2.8,0.7c-0.8,0.5-1.5,1.1-2,1.9
	v17.1h-5.3V51.9H266.9z"/>
<path fill="#933235" d="M297.6,75.9c-3.3,0-6-1.1-8-3.3c-2-2.2-3-5-3-8.4v-0.9c0-3.4,1-6.3,2.9-8.5c2-2.3,4.5-3.4,7.4-3.4
	c3.2,0,5.6,1,7.3,2.9c1.7,1.9,2.6,4.5,2.6,7.8v3.1h-14.7l0,0.1c0.1,1.9,0.6,3.4,1.6,4.6c1,1.2,2.4,1.8,4.2,1.8
	c1.4,0,2.6-0.2,3.7-0.5c1-0.4,2-0.8,2.9-1.5l1.7,3.5c-0.9,0.8-2.1,1.5-3.5,2C301.2,75.7,299.5,75.9,297.6,75.9 M297,55.7
	c-1.3,0-2.4,0.5-3.2,1.6c-0.8,1-1.4,2.4-1.6,4l0,0.1h9.4v-0.5c0-1.5-0.4-2.7-1.2-3.7C299.7,56.1,298.5,55.7,297,55.7"/>
<path fill="#933235" d="M324.4,69.1c0-0.8-0.3-1.5-1-2c-0.7-0.5-2-1-3.9-1.4c-2.8-0.6-5-1.4-6.4-2.5c-1.4-1.1-2.2-2.6-2.2-4.5
	c0-2,0.8-3.7,2.5-5.1c1.7-1.4,3.9-2.1,6.6-2.1c2.9,0,5.2,0.7,6.9,2.1c1.7,1.4,2.5,3.2,2.4,5.3l0,0.1h-5.1c0-1-0.4-1.8-1.1-2.5
	c-0.7-0.7-1.8-1-3.1-1c-1.3,0-2.3,0.3-2.9,0.9c-0.7,0.6-1,1.3-1,2.1c0,0.8,0.3,1.5,0.9,2c0.6,0.5,1.9,0.9,3.9,1.3
	c3,0.6,5.2,1.5,6.6,2.6c1.4,1.1,2.2,2.6,2.2,4.5c0,2.1-0.9,3.9-2.6,5.2c-1.7,1.3-4.1,2-6.9,2c-3.1,0-5.5-0.8-7.3-2.4
	c-1.8-1.6-2.6-3.4-2.5-5.4l0-0.1h4.9c0.1,1.4,0.6,2.4,1.5,3c0.9,0.6,2.1,0.9,3.4,0.9c1.4,0,2.4-0.3,3.2-0.8
	C324,70.6,324.4,69.9,324.4,69.1"/>
<path fill="#933235" d="M347.7,69.1c0-0.8-0.3-1.5-1-2c-0.7-0.5-2-1-3.9-1.4c-2.8-0.6-5-1.4-6.4-2.5c-1.4-1.1-2.2-2.6-2.2-4.5
	c0-2,0.8-3.7,2.5-5.1c1.7-1.4,3.9-2.1,6.6-2.1c2.9,0,5.2,0.7,6.9,2.1c1.7,1.4,2.5,3.2,2.4,5.3l0,0.1h-5.1c0-1-0.4-1.8-1.1-2.5
	c-0.7-0.7-1.8-1-3.1-1c-1.3,0-2.3,0.3-2.9,0.9c-0.7,0.6-1,1.3-1,2.1c0,0.8,0.3,1.5,0.9,2c0.6,0.5,1.9,0.9,3.9,1.3
	c3,0.6,5.2,1.5,6.6,2.6c1.4,1.1,2.2,2.6,2.2,4.5c0,2.1-0.9,3.9-2.6,5.2c-1.7,1.3-4.1,2-6.9,2c-3.1,0-5.5-0.8-7.3-2.4
	c-1.8-1.6-2.6-3.4-2.5-5.4l0-0.1h4.9c0.1,1.4,0.6,2.4,1.5,3c0.9,0.6,2.1,0.9,3.4,0.9c1.4,0,2.4-0.3,3.2-0.8
	C347.3,70.6,347.7,69.9,347.7,69.1"/>
<path fill="#933235" d="M194,111.8c0-1.7-0.6-3.1-1.9-4.2c-1.3-1.1-3.6-2.1-6.8-2.9c-3.5-0.9-6.1-2-7.9-3.4
	c-1.8-1.4-2.7-3.3-2.7-5.7c0-2.4,1-4.4,3-5.9c2-1.5,4.6-2.3,7.7-2.3c3.3,0,5.9,0.9,7.9,2.7c2,1.8,3,4,2.9,6.7l-0.1,0.1h-2.4
	c0-2.1-0.8-3.9-2.3-5.2c-1.5-1.4-3.5-2.1-6.1-2.1c-2.5,0-4.5,0.6-6,1.7c-1.4,1.1-2.1,2.5-2.1,4.2c0,1.6,0.7,2.9,2,4
	c1.3,1.1,3.6,2,6.9,2.8c3.4,0.9,6,2.1,7.8,3.5c1.8,1.5,2.7,3.4,2.7,5.9c0,2.5-1,4.5-3.1,6c-2.1,1.5-4.7,2.2-7.9,2.2
	c-3.2,0-5.9-0.8-8.3-2.4c-2.4-1.6-3.5-3.9-3.4-7l0-0.1h2.4c0,2.5,0.9,4.3,2.8,5.5c1.8,1.2,4,1.8,6.5,1.8c2.5,0,4.6-0.6,6.1-1.7
	C193.2,115.1,194,113.7,194,111.8"/>
<path fill="#933235" d="M210.7,117.9c1.7,0,3.3-0.5,4.6-1.5c1.3-1,2-2.4,2-4.1h2.3l0,0.1c0.1,2.2-0.8,4-2.6,5.5
	c-1.8,1.5-3.9,2.2-6.3,2.2c-3.2,0-5.7-1.1-7.5-3.3c-1.7-2.2-2.6-5.1-2.6-8.5v-0.9c0-3.4,0.9-6.3,2.6-8.5c1.8-2.2,4.2-3.3,7.4-3.3
	c2.6,0,4.7,0.8,6.5,2.3c1.7,1.5,2.6,3.5,2.5,6l0,0.1h-2.3c0-1.9-0.6-3.4-1.9-4.5c-1.3-1.1-2.8-1.7-4.7-1.7c-2.5,0-4.4,0.9-5.6,2.7
	c-1.2,1.8-1.8,4.1-1.8,6.8v0.9c0,2.8,0.6,5.1,1.8,6.9C206.2,117,208.1,117.9,210.7,117.9"/>
<path fill="#933235" d="M227.7,100.1c0.8-1.4,1.8-2.5,3.1-3.3c1.3-0.8,2.8-1.2,4.6-1.2c2.5,0,4.4,0.8,5.7,2.3c1.3,1.5,2,3.9,2,7.2
	v14.6h-2.6V105c0-2.6-0.5-4.4-1.5-5.5c-1-1.1-2.4-1.7-4.2-1.7c-1.8,0-3.3,0.5-4.5,1.4c-1.2,0.9-2.1,2.2-2.6,3.7v16.6h-2.6V85.6h2.6
	V100.1z"/>
<path fill="#933235" d="M248.5,107.5c0-3.5,0.9-6.3,2.9-8.6c1.9-2.2,4.4-3.3,7.6-3.3c3.2,0,5.7,1.1,7.6,3.3c1.9,2.2,2.9,5.1,2.9,8.6
	v0.7c0,3.5-1,6.4-2.9,8.6c-1.9,2.2-4.4,3.3-7.6,3.3c-3.2,0-5.7-1.1-7.6-3.3c-1.9-2.2-2.9-5.1-2.9-8.6V107.5z M251.1,108.2
	c0,2.7,0.7,5,2.1,6.9c1.4,1.9,3.3,2.8,5.8,2.8c2.4,0,4.3-0.9,5.7-2.8c1.4-1.9,2.1-4.2,2.1-6.9v-0.7c0-2.7-0.7-5-2.1-6.9
	c-1.4-1.9-3.3-2.8-5.8-2.8c-2.4,0-4.4,0.9-5.7,2.8c-1.4,1.9-2.1,4.2-2.1,6.9V108.2z"/>
<path fill="#933235" d="M273.4,107.5c0-3.5,1-6.3,2.9-8.6c1.9-2.2,4.4-3.3,7.6-3.3c3.2,0,5.7,1.1,7.6,3.3c1.9,2.2,2.9,5.1,2.9,8.6
	v0.7c0,3.5-1,6.4-2.9,8.6c-1.9,2.2-4.4,3.3-7.6,3.3c-3.2,0-5.7-1.1-7.6-3.3c-1.9-2.2-2.9-5.1-2.9-8.6V107.5z M276,108.2
	c0,2.7,0.7,5,2.1,6.9c1.4,1.9,3.3,2.8,5.8,2.8c2.4,0,4.3-0.9,5.7-2.8c1.4-1.9,2.1-4.2,2.1-6.9v-0.7c0-2.7-0.7-5-2.1-6.9
	c-1.4-1.9-3.3-2.8-5.8-2.8c-2.4,0-4.4,0.9-5.7,2.8c-1.4,1.9-2.1,4.2-2.1,6.9V108.2z"/>
<rect x="300.1" y="85.6" fill="#933235" width="2.6" height="34.1"/>
<rect x="0.2" y="0" fill="#933235" width="144.5" height="134.9"/>
<polygon fill="#FFFFFF" points="48.4,40.6 44.9,38 41.4,40.6 42.7,36.5 39.3,33.9 43.6,33.9 44.9,29.8 46.2,33.9 50.5,33.9 
	47.1,36.5 "/>
<polygon fill="#FFFFFF" points="65.9,40.6 62.4,38 58.9,40.6 60.3,36.5 56.8,33.9 61.1,33.9 62.4,29.8 63.8,33.9 68.1,33.9 
	64.6,36.5 "/>
<polygon fill="#FFFFFF" points="84.5,40.6 81,38 77.5,40.6 78.9,36.5 75.4,33.9 79.7,33.9 81,29.8 82.4,33.9 86.7,33.9 83.2,36.5 
	"/>
<polygon fill="#FFFFFF" points="103.5,40.6 100,38 96.5,40.6 97.9,36.5 94.4,33.9 98.7,33.9 100,29.8 101.4,33.9 105.7,33.9 
	102.2,36.5 "/>
<polygon fill="#FFFFFF" points="57.9,105 54.4,102.5 50.9,105 52.3,100.9 48.8,98.4 53.1,98.4 54.4,94.3 55.8,98.4 60.1,98.4 
	56.6,100.9 "/>
<polygon fill="#FFFFFF" points="75.5,105 72,102.5 68.5,105 69.9,100.9 66.4,98.4 70.7,98.4 72,94.3 73.4,98.4 77.7,98.4 
	74.2,100.9 "/>
<polygon fill="#FFFFFF" points="94,105 90.5,102.5 87,105 88.3,100.9 84.9,98.4 89.2,98.4 90.5,94.3 91.8,98.4 96.1,98.4 
	92.7,100.9 "/>
<path fill="#FFFFFF" d="M19.7,85H31v-1.2c-1.2,0-1.8-0.4-1.8-1.2V51.7c0-0.8,0.6-1.2,1.8-1.2v-1.2H19.7v1.2c1.2,0,1.8,0.4,1.8,1.2
	v30.8c0,0.8-0.6,1.2-1.8,1.2V85z"/>
<path fill="#FFFFFF" d="M42.6,85h10.2v-1.2c-1.3,0-1.9-0.4-1.9-1.2V59.9h0.1L64.4,85h0.2l13.7-25h0.1v22.6c0,0.8-0.6,1.2-1.8,1.2V85
	h10.7v-1.2c-0.4,0-0.7-0.1-1-0.3c-0.3-0.2-0.4-0.5-0.4-1v-31c0-0.4,0.1-0.7,0.4-0.8c0.3-0.2,0.6-0.3,1-0.3v-1.2H74.7v1.2
	c0.6,0,0.9,0.2,0.9,0.8c0,0.3-0.1,0.6-0.3,0.9c-0.1,0.3-0.4,0.8-0.7,1.4L64.8,71l-9.7-17.7c-0.2-0.4-0.4-0.8-0.6-1.2
	c-0.2-0.4-0.3-0.7-0.3-0.9c0-0.3,0.1-0.5,0.3-0.6c0.3-0.1,0.5-0.2,0.8-0.2v-1.2H42.6v1.2c0.4,0,0.7,0.1,0.9,0.3
	c0.3,0.1,0.4,0.4,0.4,0.8v31c0,0.4-0.1,0.7-0.4,1c-0.3,0.2-0.6,0.3-0.9,0.3V85z"/>
<path fill="#FFFFFF" d="M125.2,56.6v-9H124c0,0.5-0.2,0.9-0.6,1.2c-0.4,0.3-1,0.4-2,0.4H97.7v1.2c1.2,0,1.8,0.4,1.8,1.2v30.8
	c0,0.8-0.6,1.2-1.8,1.2V85h11.5v-1.2c-0.6,0-1.1-0.1-1.5-0.3c-0.4-0.2-0.5-0.5-0.5-0.9V69.4h5.5c0.9,0,1.6,0.2,2.1,0.5
	c0.5,0.3,0.7,0.9,0.7,2h1.2V62h-1.2c0,0.6-0.2,1-0.7,1.2c-0.5,0.2-1.2,0.3-2.1,0.3h-5.5v-8.4h14.2c1,0,1.6,0.1,2,0.4
	c0.4,0.2,0.6,0.6,0.6,1.1H125.2z"/>
</svg>
